<svg viewBox="0 0 512 512" xmlns="http://www.w3.org/2000/svg"><path d="m512 256c0 141.386719-114.613281 256-256 256s-256-114.613281-256-256 114.613281-256 256-256 256 114.613281 256 256zm0 0" fill="#445ea0"/><path d="m301.300781 195.519531c0-8.464843-6.863281-15.332031-15.332031-15.332031h-62.332031c-8.46875 0-15.335938-6.867188-15.335938-15.332031 0-8.46875 6.867188-15.335938 15.335938-15.335938h175.332031c8.46875 0 15.332031 6.867188 15.332031 15.335938 0 8.464843 6.863281 15.332031 15.332031 15.332031h39.335938c8.464844 0 15.332031 6.863281 15.332031 15.332031s-6.867187 15.332031-15.332031 15.332031h-101.335938c-8.46875 0-15.332031 6.867188-15.332031 15.335938 0 8.464844-6.863281 15.332031-15.332031 15.332031h-75.332031c-8.46875 0-15.335938-6.867187-15.335938-15.332031 0-8.46875 6.867188-15.335938 15.335938-15.335938h24.332031c8.46875.003907 15.332031-6.863281 15.332031-15.332031zm0 0" fill="#2e4c89"/><path d="m152.949219 233.789062h-39.332031c-8.46875 0-15.335938-6.867187-15.335938-15.335937 0-8.464844-6.863281-15.332031-15.332031-15.332031h-77.46875c-3.582031 17.0625-5.480469 34.75-5.480469 52.878906 0 13.300781 1.015625 26.367188 2.972656 39.121094h17.976563c8.46875 0 15.332031-6.863282 15.332031-15.332032s6.867188-15.332031 15.332031-15.332031h101.335938c8.464843 0 15.332031-6.867187 15.332031-15.335937s-6.863281-15.332032-15.332031-15.332032zm0 0" fill="#2e4c89"/><path d="m511.992188 255.292969h-171.515626c-8.46875 0-15.332031 6.867187-15.332031 15.335937 0 8.464844 6.863281 15.332032 15.332031 15.332032h62.332032c8.46875 0 15.332031 6.863281 15.332031 15.332031s-6.863281 15.332031-15.332031 15.332031h-24.332032c-8.46875 0-15.332031 6.867188-15.332031 15.335938 0 8.464843 6.863281 15.332031 15.332031 15.332031h75.332032c8.46875 0 15.332031-6.867188 15.332031-15.332031 0-8.46875 6.867187-15.335938 15.335937-15.335938h20.28125c4.722657-19.433594 7.242188-39.734375 7.242188-60.625 0-.234375-.007812-.46875-.007812-.707031zm0 0" fill="#2e4c89"/><path d="m144.617188 241.574219-41.53125 21.074219 125.808593 247.921874c8.910157.941407 17.949219 1.429688 27.105469 1.429688 8.511719 0 16.921875-.425781 25.21875-1.238281zm0 0"/><path d="m129.785156 249.101562 133.355469 262.792969c6.082031-.164062 12.109375-.546875 18.078125-1.132812l-136.601562-269.1875zm0 0" fill="#232323"/><path d="m47.167969 70.089844-24.945313 12.660156c-3.488281 1.769531-4.878906 6.03125-3.109375 9.519531l85.949219 169.375 37.574219-19.066406-85.949219-169.375c-1.769531-3.488281-6.03125-4.882813-9.519531-3.113281zm0 0" fill="#232323"/><path d="m37.898438 82.734375 85.953124 169.378906-18.789062 9.53125-85.949219-169.375c-1.769531-3.488281-.378906-7.75 3.109375-9.519531l18.789063-9.535156c-3.488281 1.769531-4.882813 6.03125-3.113281 9.519531zm0 0"/><path d="m158.601562 220.574219-80.722656 40.960937c-6.105468 3.101563-8.542968 10.5625-5.445312 16.667969 3.097656 6.109375 10.558594 8.546875 16.667968 5.449219l80.722657-40.964844c6.105469-3.097656 8.546875-10.5625 5.445312-16.667969-3.097656-6.105469-10.558593-8.546875-16.667969-5.445312zm0 0" fill="#ffd00d"/><path d="m87.265625 270.679688c3.097656 6.105468 10.558594 8.542968 16.667969 5.445312l-14.832032 7.527344c-6.109374 3.097656-13.570312.660156-16.667968-5.449219-3.097656-6.105469-.660156-13.566406 5.445312-16.667969l14.832032-7.523437c-6.105469 3.097656-8.546876 10.558593-5.445313 16.667969zm0 0" fill="#ffaf10"/><path d="m97.421875 203.292969-4.386719 13.414062c-.355468 1.097657.242188 2.28125 1.339844 2.636719l13.414062 4.382812c1.097657.359376 2.28125-.238281 2.636719-1.335937l4.382813-13.414063c.359375-1.097656-.238282-2.28125-1.335938-2.636718l-13.414062-4.386719c-1.097656-.355469-2.28125.242187-2.636719 1.339844zm0 0"/><path d="m80.984375 170.910156-4.382813 13.414063c-.359374 1.097656.242188 2.277343 1.339844 2.636719l13.414063 4.382812c1.097656.359375 2.28125-.238281 2.636719-1.335938l4.382812-13.417968c.359375-1.097656-.238281-2.277344-1.335938-2.636719l-13.417968-4.382813c-1.09375-.359374-2.277344.242188-2.636719 1.339844zm0 0"/><path d="m64.554688 138.523438-4.382813 13.417968c-.359375 1.097656.238281 2.277344 1.335937 2.636719l13.414063 4.382813c1.097656.359374 2.28125-.242188 2.636719-1.339844l4.382812-13.414063c.359375-1.097656-.238281-2.277343-1.335937-2.636719l-13.414063-4.382812c-1.097656-.359375-2.28125.238281-2.636718 1.335938zm0 0"/><path d="m48.117188 106.140625-4.382813 13.414063c-.355469 1.097656.242187 2.28125 1.339844 2.636718l13.414062 4.382813c1.097657.359375 2.28125-.238281 2.636719-1.335938l4.382812-13.414062c.359376-1.097657-.238281-2.28125-1.335937-2.636719l-13.414063-4.382812c-1.097656-.359376-2.28125.238281-2.640624 1.335937zm0 0"/><path d="m230.78125 510.761719c8.296875.8125 16.707031 1.238281 25.21875 1.238281 9.15625 0 18.195312-.488281 27.101562-1.429688l125.8125-247.921874-41.53125-21.074219zm0 0"/><path d="m367.382812 241.574219-136.601562 269.1875c5.96875.585937 11.996094.96875 18.078125 1.132812l133.355469-262.792969zm0 0" fill="#232323"/><path d="m464.832031 70.089844 24.945313 12.660156c3.488281 1.769531 4.878906 6.03125 3.109375 9.519531l-85.949219 169.375-37.574219-19.066406 85.949219-169.378906c1.769531-3.484375 6.03125-4.878907 9.519531-3.109375zm0 0" fill="#232323"/><path d="m474.101562 82.734375-85.953124 169.378906 18.789062 9.53125 85.949219-169.375c1.769531-3.488281.378906-7.75-3.109375-9.519531l-18.789063-9.535156c3.488281 1.769531 4.882813 6.03125 3.113281 9.519531zm0 0"/><path d="m353.398438 220.574219 80.722656 40.960937c6.105468 3.101563 8.542968 10.5625 5.445312 16.667969-3.097656 6.109375-10.558594 8.546875-16.667968 5.449219l-80.722657-40.964844c-6.105469-3.097656-8.546875-10.5625-5.445312-16.667969 3.097656-6.105469 10.558593-8.546875 16.667969-5.445312zm0 0" fill="#ffd00d"/><path d="m424.734375 270.679688c-3.097656 6.105468-10.558594 8.542968-16.667969 5.445312l14.832032 7.527344c6.109374 3.097656 13.570312.660156 16.667968-5.449219 3.097656-6.105469.660156-13.566406-5.445312-16.667969l-14.832032-7.523437c6.105469 3.097656 8.546876 10.558593 5.445313 16.667969zm0 0" fill="#ffaf10"/><path d="m414.578125 203.292969 4.386719 13.414062c.355468 1.097657-.242188 2.28125-1.339844 2.636719l-13.414062 4.382812c-1.097657.359376-2.28125-.238281-2.636719-1.335937l-4.382813-13.414063c-.359375-1.097656.238282-2.28125 1.335938-2.636718l13.414062-4.386719c1.097656-.355469 2.28125.242187 2.636719 1.339844zm0 0"/><path d="m431.015625 170.910156 4.382813 13.414063c.359374 1.097656-.242188 2.277343-1.339844 2.636719l-13.414063 4.382812c-1.097656.359375-2.28125-.238281-2.636719-1.335938l-4.382812-13.417968c-.359375-1.097656.238281-2.277344 1.335938-2.636719l13.417968-4.382813c1.09375-.359374 2.277344.242188 2.636719 1.339844zm0 0"/><path d="m447.445312 138.523438 4.382813 13.417968c.359375 1.097656-.238281 2.277344-1.335937 2.636719l-13.414063 4.382813c-1.097656.359374-2.28125-.242188-2.636719-1.339844l-4.382812-13.414063c-.359375-1.097656.238281-2.277343 1.335937-2.636719l13.414063-4.382812c1.097656-.359375 2.28125.238281 2.636718 1.335938zm0 0"/><path d="m463.882812 106.140625 4.382813 13.414063c.355469 1.097656-.242187 2.28125-1.339844 2.636718l-13.414062 4.382813c-1.097657.359375-2.28125-.238281-2.636719-1.335938l-4.382812-13.414062c-.359376-1.097657.238281-2.28125 1.335937-2.636719l13.414063-4.382812c1.097656-.359376 2.28125.238281 2.640624 1.335937zm0 0"/><path d="m452.152344 420.484375-17.878906-55.3125c-5.46875-16.921875-19.757813-29.496094-37.238282-32.769531l-94.972656-17.789063h-92.125l-94.972656 17.789063c-17.480469 3.273437-31.769532 15.847656-37.238282 32.769531l-17.878906 55.3125c46.960938 55.941406 117.394532 91.515625 196.152344 91.515625s149.191406-35.574219 196.152344-91.515625zm0 0"/><path d="m312.515625 316.59375s-22.417969 13.066406-56.515625 13.066406-56.515625-13.066406-56.515625-13.066406l6.070313-89.199219h100.890624zm0 0" fill="#232323"/><path d="m310.554688 287.761719-4.109376-60.367188h-100.890624l-4.109376 60.367188-1.960937 28.832031s5.140625 2.992188 14.222656 6.109375l2.050781-28.503906c14.851563 5.78125 28.996094 8.535156 40.242188 8.535156 14.820312 0 34.667969-4.769531 54.554688-14.972656zm0 0"/><path d="m370.957031 82.4375c-12.679687-36.023438-42.980469-82.4375-114.957031-82.4375s-102.277344 46.414062-114.957031 82.4375c-7.398438 21.015625-9.15625 43.589844-5.554688 65.578125 5.28125 32.28125 16.914063 87.738281 36.648438 106.742187 28.480469 27.429688 63.820312 37.976563 83.863281 37.976563 20.046875 0 55.382812-10.550781 83.867188-37.976563 19.730468-19 31.363281-74.460937 36.648437-106.742187 3.597656-21.988281 1.839844-44.5625-5.558594-65.578125zm0 0" fill="#232323"/><path d="m359.144531 147.550781c-8.347656-17.148437 1.578125-38.140625-4.753906-56.128906-10.855469-30.832031-36.789063-70.558594-98.390625-70.558594s-87.535156 39.726563-98.390625 70.558594c-6.332031 17.988281 3.59375 38.980469-4.753906 56.128906-10.6875 21.953125 36.101562 62.96875 32.105469 91.816407-3.992188 28.847656 71.039062 29.328124 71.039062 29.328124s75.03125-.480468 71.039062-29.328124c-3.996093-28.847657 42.792969-69.863282 32.105469-91.816407zm0 0" fill="#eef6ff"/><path d="m337.140625 112.445312h-168.785156c-.367188-7.1875-.265625-14.316406 2.09375-21.023437 10.464843-29.738281 34.972656-67.742187 91.96875-70.402344-2.097657-.097656-4.230469-.152343-6.417969-.152343-61.601562 0-87.535156 39.722656-98.390625 70.554687-6.332031 17.988281 3.59375 38.980469-4.753906 56.128906-10.6875 21.953125 36.101562 62.96875 32.105469 91.816407-3.992188 28.847656 71.039062 29.328124 71.039062 29.328124s2.445312-.019531 6.417969-.210937c-18.070313-.886719-67.890625-5.46875-64.617188-29.117187 3.992188-28.847657-42.792969-69.863282-32.109375-91.816407 3.59375-7.375 3.800782-15.464843 3.378906-23.714843h62.535157v28.019531h48.785156v-28.019531h56.75c3.144531 0 5.695313-2.550782 5.695313-5.695313 0-3.148437-2.550782-5.695313-5.695313-5.695313zm0 0" fill="#d9eafc"/><path d="m349.332031 22.113281-3.078125 12.058594c-4.03125 15.773437-15.476562 28.597656-30.691406 34.390625-12.117188 4.609375-16.109375 19.765625-7.839844 29.75 6.335938 7.648438 17.511719 9.097656 25.585938 3.3125l4.464844-3.199219c15.996093-11.453125 23.796874-31.210937 19.9375-50.5l-5.144532-25.730469c-.347656-1.726562-2.796875-1.792968-3.234375-.082031zm0 0" fill="#ffd00d"/><path d="m162.667969 22.113281 3.078125 12.058594c4.03125 15.773437 15.476562 28.597656 30.691406 34.390625 12.117188 4.609375 16.109375 19.765625 7.839844 29.75-6.335938 7.648438-17.511719 9.097656-25.585938 3.3125l-4.464844-3.199219c-15.996093-11.453125-23.796874-31.210937-19.9375-50.5l5.144532-25.730469c.347656-1.726562 2.796875-1.792968 3.234375-.082031zm0 0" fill="#ffd00d"/><path d="m246.800781 123.835938c0 18.671874-15.140625 33.8125-33.816406 33.8125s-33.816406-15.140626-33.816406-33.8125zm0 0" fill="#ffd00d"/><path d="m192.007812 123.835938h-12.839843c0 18.671874 15.140625 33.8125 33.816406 33.8125 2.195313 0 4.339844-.214844 6.417969-.613282-15.601563-3.003906-27.394532-16.722656-27.394532-33.199218zm0 0" fill="#ffaf10"/><path d="m332.832031 123.835938c0 18.671874-15.140625 33.8125-33.816406 33.8125s-33.816406-15.140626-33.816406-33.8125zm0 0" fill="#ffd00d"/><path d="m278.039062 123.835938h-12.839843c0 18.671874 15.140625 33.8125 33.816406 33.8125 2.195313 0 4.339844-.214844 6.417969-.613282-15.605469-3.003906-27.394532-16.722656-27.394532-33.199218zm0 0" fill="#ffaf10"/><path d="m256 194.714844c-26.902344 0-44.214844-13.03125-53.539062-23.03125-3.046876-3.265625-8.511719-1.097656-8.511719 3.367187 0 .480469.070312.964844.210937 1.425781l15.902344 52.511719c1.867188 6.164063 7.546875 10.378907 13.988281 10.378907h63.898438c6.441406 0 12.121093-4.214844 13.988281-10.378907l15.902344-52.511719c.140625-.460937.210937-.945312.210937-1.425781 0-4.464843-5.464843-6.632812-8.511719-3.367187-9.324218 10-26.636718 23.03125-53.539062 23.03125zm0 0" fill="#232323"/><path d="m281.636719 147.929688c-1.808594 0-3.546875.308593-5.171875.851562-4.683594-6.191406-12.105469-10.191406-20.464844-10.191406s-15.78125 4-20.464844 10.191406c-1.625-.542969-3.363281-.851562-5.171875-.851562-9 0-16.296875 7.296874-16.296875 16.296874s7.296875 16.296876 16.296875 16.296876c1.808594 0 3.546875-.308594 5.171875-.855469 4.683594 6.191406 12.105469 10.195312 20.464844 10.195312s15.78125-4.003906 20.464844-10.195312c1.625.546875 3.363281.855469 5.171875.855469 9 0 16.296875-7.296876 16.296875-16.296876s-7.296875-16.296874-16.296875-16.296874zm0 0" fill="#d9eafc"/><path d="m281.636719 167.683594c-1.808594 0-3.546875-.308594-5.171875-.855469-4.683594 6.195313-12.105469 10.195313-20.464844 10.195313s-15.78125-4-20.464844-10.195313c-1.625.546875-3.363281.855469-5.171875.855469-6.722656 0-12.488281-4.070313-14.980469-9.878906-.847656 1.972656-1.316406 4.140624-1.316406 6.421874 0 9 7.296875 16.292969 16.296875 16.292969 1.808594 0 3.546875-.304687 5.171875-.851562 4.683594 6.191406 12.105469 10.195312 20.464844 10.195312s15.78125-4.003906 20.464844-10.195312c1.625.546875 3.363281.851562 5.171875.851562 9 0 16.296875-7.292969 16.296875-16.292969 0-2.28125-.472656-4.449218-1.316406-6.421874-2.492188 5.808593-8.257813 9.878906-14.980469 9.878906zm0 0" fill="#c3ddf4"/><path d="m256 208.730469c19.644531 0 33.21875-7.703125 41.289062-14.371094 5.808594-4.800781 9.121094-11.980469 9.121094-19.519531-9.851562 9.378906-26.265625 19.875-50.410156 19.875s-40.558594-10.496094-50.410156-19.875c0 7.539062 3.3125 14.71875 9.121094 19.519531 8.070312 6.667969 21.644531 14.371094 41.289062 14.371094zm0 0" fill="#ffaf10"/><path d="m213.945312 235.296875c2.65625 2.542969 6.242188 4.070313 10.105469 4.070313h63.898438c3.863281 0 7.449219-1.527344 10.105469-4.070313 0-5.691406-4.613282-10.304687-10.304688-10.304687h-63.503906c-5.6875 0-10.300782 4.613281-10.300782 10.304687zm0 0" fill="#ffaf10"/><g fill="#ffd00d"><path d="m300.625 204.015625-1.472656 5.765625c-1.925782 7.539062-7.398438 13.671875-14.675782 16.441406-5.792968 2.207032-7.703124 9.453125-3.746093 14.226563 3.027343 3.65625 8.371093 4.347656 12.230469 1.582031l2.136718-1.527344c7.644532-5.476562 11.375-14.925781 9.53125-24.148437l-2.460937-12.300781c-.164063-.828126-1.335938-.859376-1.542969-.039063zm0 0"/><path d="m211.375 204.015625 1.472656 5.765625c1.925782 7.539062 7.398438 13.671875 14.675782 16.441406 5.792968 2.207032 7.703124 9.453125 3.746093 14.226563-3.027343 3.65625-8.371093 4.347656-12.230469 1.582031l-2.136718-1.527344c-7.644532-5.476562-11.375-14.925781-9.53125-24.148437l2.460937-12.300781c.164063-.828126 1.335938-.859376 1.542969-.039063zm0 0"/><path d="m165.617188 187.429688 6.738281-1.722657c8.8125-2.25 15.980469-8.644531 19.214843-17.144531 2.574219-6.773438 11.042969-9.003906 16.621094-4.382812 4.273438 3.539062 5.082032 9.785156 1.851563 14.296874l-1.789063 2.492188c-6.398437 8.9375-17.4375 13.296875-28.214844 11.140625l-14.375-2.875c-.964843-.195313-1-1.5625-.046874-1.804687zm0 0"/><path d="m346.382812 187.429688-6.738281-1.722657c-8.8125-2.25-15.980469-8.644531-19.214843-17.144531-2.574219-6.773438-11.042969-9.003906-16.621094-4.382812-4.273438 3.539062-5.082032 9.785156-1.851563 14.296874l1.789063 2.492188c6.398437 8.9375 17.4375 13.296875 28.214844 11.140625l14.375-2.875c.964843-.195313 1-1.5625.046874-1.804687zm0 0"/></g><path d="m204.277344 98.3125c.164062-.199219.316406-.402344.472656-.605469-7.664062-4.679687-24.789062-15.589843-33.910156-24.96875-9.101563-9.351562-10.300782-38.351562-10.355469-51.773437-.5.175781-.917969.589844-1.046875 1.234375l-5.148438 25.726562c-3.855468 19.289063 3.945313 39.046875 19.9375 50.5l4.464844 3.199219c8.078125 5.785156 19.25 4.335938 25.585938-3.3125zm0 0" fill="#ffaf10"/><path d="m307.722656 98.3125c-.164062-.199219-.316406-.402344-.472656-.605469 7.664062-4.679687 24.789062-15.589843 33.910156-24.96875 9.101563-9.351562 10.300782-38.351562 10.355469-51.773437.5.175781.917969.589844 1.046875 1.234375l5.148438 25.726562c3.855468 19.289063-3.945313 39.046875-19.9375 50.5l-4.464844 3.199219c-8.078125 5.785156-19.25 4.335938-25.585938-3.3125zm0 0" fill="#ffaf10"/></svg>